<svg width="214" height="163" viewBox="0 0 214 163" fill="none" xmlns="http://www.w3.org/2000/svg">
<path d="M42.729 84.5693C43.9002 83.9837 45.1263 83.6909 46.4074 83.6909C47.725 83.6909 48.7864 84.0935 49.5916 84.8987C50.4334 85.7039 50.8543 86.6738 50.8543 87.8084C50.8543 88.943 50.6896 91.4502 50.3602 95.3299C50.0308 99.1729 49.8661 102.229 49.8661 104.498C49.8661 111.782 50.1955 117.839 50.8543 122.671C49.6831 123.11 48.3655 123.329 46.9015 123.329C45.474 123.329 44.3577 123.091 43.5525 122.616C41.2101 121.261 35.7383 112.697 27.1371 96.922C26.9907 98.3494 26.9175 101.698 26.9175 106.969C26.9175 112.203 27.3201 117.327 28.1253 122.341C26.9907 122.78 25.7646 123 24.447 123C23.1294 123 22.0496 122.579 21.2078 121.737C20.4026 120.895 20 119.889 20 118.718C20 117.546 20.1647 115.094 20.4941 111.361C20.8601 107.628 21.0431 104.809 21.0431 102.906C21.0431 95.6227 20.6954 89.5836 20 84.7889C21.0248 84.2765 22.5254 84.0203 24.5019 84.0203C26.4783 84.0203 27.8691 84.8072 28.6744 86.381C34.0912 97.3978 39.2702 106.731 44.2113 114.38C44.1015 107.353 44.0466 103.638 44.0466 103.236C44.0466 96.3913 43.6074 90.1692 42.729 84.5693Z" fill="white"/>
<path d="M61.0668 110.537C61.0668 113.173 61.4877 115.259 62.3295 116.796C63.1713 118.297 64.5804 119.047 66.5569 119.047C68.5333 119.047 70.0705 118.388 71.1685 117.071C72.3032 115.716 72.8705 114.088 72.8705 112.184C74.1149 112.184 75.1946 112.496 76.1096 113.118C77.0247 113.74 77.4822 114.6 77.4822 115.698C77.4822 117.967 76.2743 119.871 73.8587 121.408C71.4431 122.908 68.8993 123.659 66.2275 123.659C62.055 123.659 59.0354 122.542 57.1688 120.31C55.3022 118.041 54.3689 114.692 54.3689 110.263C54.3689 105.834 55.6133 102.119 58.1021 99.118C60.6276 96.0802 63.9765 94.5612 68.149 94.5612C71.0039 94.5612 73.2914 95.2201 75.0116 96.5377C76.7684 97.8187 77.6469 99.8317 77.6469 102.577C77.6469 105.285 76.4024 107.335 73.9136 108.726C71.4613 110.08 68.4601 110.757 64.9098 110.757C63.6654 110.757 62.3844 110.684 61.0668 110.537ZM61.1217 106.2C62.2197 106.42 63.3726 106.53 64.5804 106.53C67.2157 106.53 69.43 106.036 71.2234 105.047C71.4431 104.169 71.5529 103.473 71.5529 102.961C71.5529 101.68 71.0953 100.71 70.1803 100.051C69.2653 99.3925 68.0026 99.0631 66.3922 99.0631C64.8183 99.0631 63.3909 99.5755 62.1099 100.6C61.4511 102.504 61.1217 104.37 61.1217 106.2Z" fill="white"/>
<path d="M107.915 97.1416C106.927 101.351 106.433 105.578 106.433 109.824C106.433 114.033 106.909 118.205 107.86 122.341C106.543 122.78 105.189 123 103.798 123C102.407 123 101.437 122.597 100.888 121.792C100.339 120.95 100.064 119.761 100.064 118.224C100.064 116.65 100.302 114.509 100.778 111.8C98.1795 117.363 95.6724 120.877 93.2568 122.341C92.1587 123 91.0241 123.329 89.8529 123.329C87.0712 123.329 84.9118 122.305 83.3746 120.255C81.8373 118.169 81.0687 115.588 81.0687 112.514C81.0687 107.829 82.3681 103.73 84.9667 100.216C87.5654 96.6658 90.9326 94.8906 95.0685 94.8906C99.241 94.8906 103.523 95.641 107.915 97.1416ZM100.723 100.436C98.7834 99.85 97.1364 99.5572 95.7822 99.5572C93.0371 99.5572 90.9875 100.161 89.6333 101.369C88.3889 104.443 87.7666 107.573 87.7666 110.757C87.7666 112.441 88.0229 114.143 88.5353 115.863C89.0843 117.583 89.9078 118.443 91.0058 118.443C92.2868 118.443 93.9339 116.558 95.9469 112.788C97.9599 109.018 99.5521 104.901 100.723 100.436Z" fill="white"/>
<path d="M120.813 122.341C119.678 122.78 118.47 123 117.189 123C115.908 123 114.865 122.707 114.06 122.122C113.291 121.499 112.907 120.658 112.907 119.596C112.907 118.498 113.072 116.522 113.401 113.667C113.731 110.812 113.895 108.049 113.895 105.377C113.895 102.668 113.474 99.5023 112.632 95.8789C113.804 95.4397 114.957 95.2201 116.091 95.2201C117.226 95.2201 118.196 95.6044 119.001 96.373C119.843 97.1416 120.264 98.1664 120.264 99.4474C120.264 100.106 120.154 101.094 119.934 102.412C119.715 103.693 119.587 104.663 119.55 105.322C120.977 102.064 122.661 99.5206 124.601 97.6906C126.577 95.824 128.535 94.8906 130.475 94.8906C131.83 94.8906 132.909 95.3665 133.714 96.3181C134.52 97.2697 134.922 98.4775 134.922 99.9415C134.922 101.369 134.556 102.54 133.824 103.455C133.092 104.334 132.177 104.773 131.079 104.773C130.018 104.773 129.158 104.663 128.499 104.443C128.609 104.004 128.664 103.602 128.664 103.236C128.664 101.735 128.133 100.985 127.071 100.985C125.461 100.985 123.942 102.613 122.515 105.871C121.124 109.092 120.191 112.111 119.715 114.929C119.898 117.675 120.264 120.145 120.813 122.341Z" fill="white"/>
<path d="M137.834 121.078C138.676 113.795 139.096 108.781 139.096 106.036C139.096 98.3494 138.785 90.4986 138.163 82.483C139.261 82.0438 140.432 81.8242 141.677 81.8242C142.921 81.8242 143.983 82.2451 144.861 83.0869C145.739 83.9288 146.179 84.9902 146.179 86.2712C146.179 88.4672 145.959 91.9809 145.52 96.8122C145.081 101.607 144.806 104.809 144.696 106.42C147.698 100.783 150.681 97.2697 153.645 95.8789C154.963 95.2201 156.372 94.8906 157.873 94.8906C159.922 94.8906 161.496 95.9704 162.594 98.1298C163.729 100.289 164.296 102.924 164.296 106.036C164.296 111.013 162.942 115.149 160.233 118.443C157.525 121.701 154.011 123.329 149.692 123.329C145.41 123.329 141.457 122.579 137.834 121.078ZM144.422 117.62C145.886 118.169 147.624 118.443 149.637 118.443C151.65 118.443 153.389 118.059 154.853 117.29C156.646 114.216 157.543 110.867 157.543 107.243C157.543 105.523 157.342 103.858 156.939 102.247C156.537 100.6 155.896 99.7768 155.018 99.7768C153.664 99.7768 151.888 101.643 149.692 105.377C147.496 109.11 145.739 113.191 144.422 117.62Z" fill="white"/>
<path d="M169.427 113.886L169.976 105.981C169.976 102.43 169.463 99.0631 168.438 95.8789C169.463 95.4397 170.726 95.2201 172.227 95.2201C175.155 95.2201 176.619 96.8488 176.619 100.106C176.619 101.57 176.417 103.638 176.015 106.31C175.612 108.982 175.411 110.83 175.411 111.855C175.411 112.843 175.429 113.575 175.466 114.051C175.502 114.49 175.594 115.021 175.74 115.643C175.96 116.888 176.674 117.51 177.881 117.51C179.126 117.51 180.443 116.54 181.834 114.6C183.262 112.624 184.396 110.446 185.238 108.067C186.117 105.688 186.556 103.803 186.556 102.412C186.373 99.5206 186.062 97.3429 185.622 95.8789C186.794 95.4397 187.983 95.2201 189.191 95.2201C190.435 95.2201 191.46 95.6044 192.265 96.373C193.107 97.1416 193.528 98.1664 193.528 99.4474C193.528 119.431 187.868 139.418 180.548 143.408C178.901 144.286 177.034 144.725 174.948 144.725C172.862 144.725 171.032 144.176 169.458 143.078C167.921 141.98 165.152 140.443 165.152 138.466C165.152 137.149 167.646 136.033 168.635 135.118C169.623 134.239 170.794 133.8 172.148 133.8C172.441 133.8 172.807 133.836 173.246 133.91C173.136 134.385 173.081 134.806 173.081 135.172C173.081 138.393 174.198 140.004 176.43 140.004C177.785 140.004 179.011 139.272 180.109 137.808C181.207 136.344 182.085 134.55 182.744 132.427C184.025 128.108 186.666 116.192 186.666 112.679C185.568 115.643 184.067 118.041 182.164 119.871C180.297 121.664 178.266 122.561 176.07 122.561C171.641 122.561 169.427 119.669 169.427 113.886Z" fill="white"/>
<path d="M24.296 145C23.3253 145 22.5306 144.813 21.912 144.44C21.304 144.056 20.8506 143.539 20.552 142.888C20.2533 142.237 20.088 141.496 20.056 140.664C20.0453 140.227 20.04 139.757 20.04 139.256C20.04 138.755 20.0453 138.275 20.056 137.816C20.088 136.984 20.2533 136.243 20.552 135.592C20.8506 134.931 21.304 134.413 21.912 134.04C22.5306 133.667 23.3253 133.48 24.296 133.48C25.0533 133.48 25.6986 133.587 26.232 133.8C26.7653 134.013 27.1973 134.296 27.528 134.648C27.8693 134.989 28.12 135.363 28.28 135.768C28.4506 136.163 28.5466 136.552 28.568 136.936C28.5786 137.032 28.5466 137.112 28.472 137.176C28.408 137.229 28.328 137.256 28.232 137.256H27.912C27.8266 137.256 27.752 137.235 27.688 137.192C27.624 137.139 27.5813 137.048 27.56 136.92C27.3573 135.971 26.9733 135.32 26.408 134.968C25.8533 134.616 25.1493 134.44 24.296 134.44C23.3253 134.44 22.552 134.717 21.976 135.272C21.4106 135.816 21.1066 136.691 21.064 137.896C21.032 138.771 21.032 139.667 21.064 140.584C21.1066 141.789 21.4106 142.669 21.976 143.224C22.552 143.768 23.3253 144.04 24.296 144.04C25.1493 144.04 25.8533 143.864 26.408 143.512C26.9733 143.16 27.3573 142.509 27.56 141.56C27.5813 141.432 27.624 141.347 27.688 141.304C27.752 141.251 27.8266 141.224 27.912 141.224H28.232C28.328 141.224 28.408 141.256 28.472 141.32C28.5466 141.373 28.5786 141.448 28.568 141.544C28.5466 141.928 28.4506 142.323 28.28 142.728C28.12 143.123 27.8693 143.496 27.528 143.848C27.1973 144.189 26.7653 144.467 26.232 144.68C25.6986 144.893 25.0533 145 24.296 145Z" fill="white"/>
<path d="M31.0859 144.84C30.9792 144.84 30.8939 144.808 30.8299 144.744C30.7659 144.68 30.7339 144.595 30.7339 144.488V133.832C30.7339 133.725 30.7659 133.64 30.8299 133.576C30.8939 133.512 30.9792 133.48 31.0859 133.48H31.3579C31.4645 133.48 31.5499 133.512 31.6139 133.576C31.6779 133.64 31.7099 133.725 31.7099 133.832V144.488C31.7099 144.595 31.6779 144.68 31.6139 144.744C31.5499 144.808 31.4645 144.84 31.3579 144.84H31.0859Z" fill="white"/>
<path d="M37.4316 145C36.7063 145 36.1036 144.845 35.6236 144.536C35.1543 144.216 34.8023 143.784 34.5676 143.24C34.3436 142.696 34.2316 142.088 34.2316 141.416V136.872C34.2316 136.765 34.2636 136.68 34.3276 136.616C34.3916 136.552 34.4769 136.52 34.5836 136.52H34.8556C34.9623 136.52 35.0476 136.552 35.1116 136.616C35.1756 136.68 35.2076 136.765 35.2076 136.872V141.336C35.2076 143.16 36.0023 144.072 37.5916 144.072C38.3489 144.072 38.9569 143.832 39.4156 143.352C39.8743 142.861 40.1036 142.189 40.1036 141.336V136.872C40.1036 136.765 40.1356 136.68 40.1996 136.616C40.2636 136.552 40.3489 136.52 40.4556 136.52H40.7276C40.8343 136.52 40.9196 136.552 40.9836 136.616C41.0476 136.68 41.0796 136.765 41.0796 136.872V144.488C41.0796 144.595 41.0476 144.68 40.9836 144.744C40.9196 144.808 40.8343 144.84 40.7276 144.84H40.4556C40.3489 144.84 40.2636 144.808 40.1996 144.744C40.1356 144.68 40.1036 144.595 40.1036 144.488V143.736C39.8156 144.109 39.4689 144.413 39.0636 144.648C38.6689 144.883 38.1249 145 37.4316 145Z" fill="white"/>
<path d="M47.351 145C46.6896 145 46.1403 144.883 45.703 144.648C45.2763 144.403 44.9296 144.099 44.663 143.736V144.488C44.663 144.595 44.631 144.68 44.567 144.744C44.503 144.808 44.4176 144.84 44.311 144.84H44.039C43.9323 144.84 43.847 144.808 43.783 144.744C43.719 144.68 43.687 144.595 43.687 144.488V133.832C43.687 133.725 43.719 133.64 43.783 133.576C43.847 133.512 43.9323 133.48 44.039 133.48H44.311C44.4176 133.48 44.503 133.512 44.567 133.576C44.631 133.64 44.663 133.725 44.663 133.832V137.624C44.9296 137.272 45.2763 136.973 45.703 136.728C46.1403 136.483 46.6896 136.36 47.351 136.36C47.9803 136.36 48.5083 136.472 48.935 136.696C49.3616 136.92 49.7083 137.219 49.975 137.592C50.2416 137.965 50.439 138.381 50.567 138.84C50.695 139.299 50.7643 139.763 50.775 140.232C50.7856 140.392 50.791 140.541 50.791 140.68C50.791 140.819 50.7856 140.968 50.775 141.128C50.7643 141.597 50.695 142.061 50.567 142.52C50.439 142.979 50.2416 143.395 49.975 143.768C49.7083 144.141 49.3616 144.44 48.935 144.664C48.5083 144.888 47.9803 145 47.351 145ZM47.255 144.072C47.8843 144.072 48.3803 143.933 48.743 143.656C49.1056 143.379 49.367 143.016 49.527 142.568C49.687 142.12 49.7776 141.64 49.799 141.128C49.8096 140.829 49.8096 140.531 49.799 140.232C49.7776 139.72 49.687 139.24 49.527 138.792C49.367 138.344 49.1056 137.981 48.743 137.704C48.3803 137.427 47.8843 137.288 47.255 137.288C46.6683 137.288 46.183 137.427 45.799 137.704C45.4256 137.981 45.143 138.328 44.951 138.744C44.7696 139.16 44.6736 139.581 44.663 140.008C44.6523 140.168 44.647 140.376 44.647 140.632C44.647 140.888 44.6523 141.096 44.663 141.256C44.6843 141.693 44.7803 142.131 44.951 142.568C45.1323 142.995 45.4096 143.352 45.783 143.64C46.1563 143.928 46.647 144.072 47.255 144.072Z" fill="white"/>
<path d="M56.0402 145C55.0056 145 54.1842 144.664 53.5762 143.992C52.9682 143.309 52.6216 142.419 52.5362 141.32C52.5256 141.16 52.5202 140.947 52.5202 140.68C52.5202 140.413 52.5256 140.2 52.5362 140.04C52.5896 139.315 52.7602 138.675 53.0482 138.12C53.3362 137.565 53.7309 137.133 54.2322 136.824C54.7442 136.515 55.3469 136.36 56.0402 136.36C56.7869 136.36 57.4216 136.525 57.9442 136.856C58.4669 137.187 58.8669 137.661 59.1442 138.28C59.4322 138.899 59.5762 139.635 59.5762 140.488V140.728C59.5762 140.835 59.5389 140.92 59.4642 140.984C59.4002 141.048 59.3149 141.08 59.2082 141.08H53.5122C53.5122 141.08 53.5122 141.101 53.5122 141.144C53.5122 141.187 53.5122 141.219 53.5122 141.24C53.5336 141.72 53.6456 142.179 53.8482 142.616C54.0509 143.043 54.3389 143.395 54.7122 143.672C55.0856 143.939 55.5282 144.072 56.0402 144.072C56.4989 144.072 56.8776 144.003 57.1762 143.864C57.4856 143.725 57.7309 143.576 57.9122 143.416C58.0936 143.245 58.2109 143.117 58.2642 143.032C58.3602 142.893 58.4349 142.813 58.4882 142.792C58.5416 142.76 58.6269 142.744 58.7442 142.744H59.0002C59.0962 142.744 59.1762 142.776 59.2402 142.84C59.3149 142.893 59.3469 142.968 59.3362 143.064C59.3256 143.213 59.2402 143.4 59.0802 143.624C58.9309 143.837 58.7122 144.051 58.4242 144.264C58.1469 144.477 57.8056 144.653 57.4002 144.792C56.9949 144.931 56.5416 145 56.0402 145ZM53.5122 140.184H58.6002V140.12C58.6002 139.587 58.4989 139.107 58.2962 138.68C58.0936 138.253 57.8002 137.917 57.4162 137.672C57.0322 137.416 56.5736 137.288 56.0402 137.288C55.5069 137.288 55.0482 137.416 54.6642 137.672C54.2909 137.917 54.0029 138.253 53.8002 138.68C53.6082 139.107 53.5122 139.587 53.5122 140.12V140.184Z" fill="white"/>
<path d="M67.8196 145C67.2009 145 66.6729 144.888 66.2356 144.664C65.8089 144.44 65.4623 144.141 65.1956 143.768C64.9289 143.395 64.7316 142.979 64.6036 142.52C64.4863 142.061 64.4169 141.597 64.3956 141.128C64.3849 140.968 64.3796 140.819 64.3796 140.68C64.3796 140.541 64.3849 140.392 64.3956 140.232C64.4169 139.763 64.4863 139.299 64.6036 138.84C64.7316 138.381 64.9289 137.965 65.1956 137.592C65.4623 137.219 65.8089 136.92 66.2356 136.696C66.6729 136.472 67.2009 136.36 67.8196 136.36C68.4809 136.36 69.0249 136.483 69.4516 136.728C69.8889 136.973 70.2409 137.272 70.5076 137.624V133.832C70.5076 133.725 70.5396 133.64 70.6036 133.576C70.6676 133.512 70.7529 133.48 70.8596 133.48H71.1316C71.2383 133.48 71.3236 133.512 71.3876 133.576C71.4516 133.64 71.4836 133.725 71.4836 133.832V144.488C71.4836 144.595 71.4516 144.68 71.3876 144.744C71.3236 144.808 71.2383 144.84 71.1316 144.84H70.8596C70.7529 144.84 70.6676 144.808 70.6036 144.744C70.5396 144.68 70.5076 144.595 70.5076 144.488V143.736C70.2409 144.099 69.8889 144.403 69.4516 144.648C69.0249 144.883 68.4809 145 67.8196 145ZM67.9156 144.072C68.5236 144.072 69.0143 143.928 69.3876 143.64C69.7609 143.352 70.0383 142.995 70.2196 142.568C70.4009 142.131 70.4969 141.693 70.5076 141.256C70.5183 141.096 70.5236 140.888 70.5236 140.632C70.5236 140.376 70.5183 140.168 70.5076 140.008C70.4969 139.581 70.3956 139.16 70.2036 138.744C70.0223 138.328 69.7449 137.981 69.3716 137.704C68.9983 137.427 68.5129 137.288 67.9156 137.288C67.2969 137.288 66.8009 137.427 66.4276 137.704C66.0649 137.981 65.8036 138.344 65.6436 138.792C65.4836 139.24 65.3929 139.72 65.3716 140.232C65.3609 140.531 65.3609 140.829 65.3716 141.128C65.3929 141.64 65.4836 142.12 65.6436 142.568C65.8036 143.016 66.0649 143.379 66.4276 143.656C66.8009 143.933 67.2969 144.072 67.9156 144.072Z" fill="white"/>
<path d="M77.1809 145C76.1462 145 75.3249 144.664 74.7169 143.992C74.1089 143.309 73.7622 142.419 73.6769 141.32C73.6662 141.16 73.6609 140.947 73.6609 140.68C73.6609 140.413 73.6662 140.2 73.6769 140.04C73.7302 139.315 73.9009 138.675 74.1889 138.12C74.4769 137.565 74.8715 137.133 75.3729 136.824C75.8849 136.515 76.4875 136.36 77.1809 136.36C77.9275 136.36 78.5622 136.525 79.0849 136.856C79.6075 137.187 80.0075 137.661 80.2849 138.28C80.5729 138.899 80.7169 139.635 80.7169 140.488V140.728C80.7169 140.835 80.6795 140.92 80.6049 140.984C80.5409 141.048 80.4555 141.08 80.3489 141.08H74.6529C74.6529 141.08 74.6529 141.101 74.6529 141.144C74.6529 141.187 74.6529 141.219 74.6529 141.24C74.6742 141.72 74.7862 142.179 74.9889 142.616C75.1915 143.043 75.4795 143.395 75.8529 143.672C76.2262 143.939 76.6689 144.072 77.1809 144.072C77.6395 144.072 78.0182 144.003 78.3169 143.864C78.6262 143.725 78.8715 143.576 79.0529 143.416C79.2342 143.245 79.3515 143.117 79.4049 143.032C79.5009 142.893 79.5755 142.813 79.6289 142.792C79.6822 142.76 79.7675 142.744 79.8849 142.744H80.1409C80.2369 142.744 80.3169 142.776 80.3809 142.84C80.4555 142.893 80.4875 142.968 80.4769 143.064C80.4662 143.213 80.3809 143.4 80.2209 143.624C80.0715 143.837 79.8529 144.051 79.5649 144.264C79.2875 144.477 78.9462 144.653 78.5409 144.792C78.1355 144.931 77.6822 145 77.1809 145ZM74.6529 140.184H79.7409V140.12C79.7409 139.587 79.6395 139.107 79.4369 138.68C79.2342 138.253 78.9409 137.917 78.5569 137.672C78.1729 137.416 77.7142 137.288 77.1809 137.288C76.6475 137.288 76.1889 137.416 75.8049 137.672C75.4315 137.917 75.1435 138.253 74.9409 138.68C74.7489 139.107 74.6529 139.587 74.6529 140.12V140.184Z" fill="white"/>
<path d="M89.6322 145C88.9709 145 88.4216 144.883 87.9842 144.648C87.5576 144.403 87.2109 144.099 86.9442 143.736V144.488C86.9442 144.595 86.9122 144.68 86.8482 144.744C86.7842 144.808 86.6989 144.84 86.5922 144.84H86.3202C86.2136 144.84 86.1282 144.808 86.0642 144.744C86.0002 144.68 85.9682 144.595 85.9682 144.488V133.832C85.9682 133.725 86.0002 133.64 86.0642 133.576C86.1282 133.512 86.2136 133.48 86.3202 133.48H86.5922C86.6989 133.48 86.7842 133.512 86.8482 133.576C86.9122 133.64 86.9442 133.725 86.9442 133.832V137.624C87.2109 137.272 87.5576 136.973 87.9842 136.728C88.4216 136.483 88.9709 136.36 89.6322 136.36C90.2616 136.36 90.7896 136.472 91.2162 136.696C91.6429 136.92 91.9896 137.219 92.2562 137.592C92.5229 137.965 92.7202 138.381 92.8482 138.84C92.9762 139.299 93.0456 139.763 93.0562 140.232C93.0669 140.392 93.0722 140.541 93.0722 140.68C93.0722 140.819 93.0669 140.968 93.0562 141.128C93.0456 141.597 92.9762 142.061 92.8482 142.52C92.7202 142.979 92.5229 143.395 92.2562 143.768C91.9896 144.141 91.6429 144.44 91.2162 144.664C90.7896 144.888 90.2616 145 89.6322 145ZM89.5362 144.072C90.1656 144.072 90.6616 143.933 91.0242 143.656C91.3869 143.379 91.6482 143.016 91.8082 142.568C91.9682 142.12 92.0589 141.64 92.0802 141.128C92.0909 140.829 92.0909 140.531 92.0802 140.232C92.0589 139.72 91.9682 139.24 91.8082 138.792C91.6482 138.344 91.3869 137.981 91.0242 137.704C90.6616 137.427 90.1656 137.288 89.5362 137.288C88.9496 137.288 88.4642 137.427 88.0802 137.704C87.7069 137.981 87.4242 138.328 87.2322 138.744C87.0509 139.16 86.9549 139.581 86.9442 140.008C86.9336 140.168 86.9282 140.376 86.9282 140.632C86.9282 140.888 86.9336 141.096 86.9442 141.256C86.9656 141.693 87.0616 142.131 87.2322 142.568C87.4136 142.995 87.6909 143.352 88.0642 143.64C88.4376 143.928 88.9282 144.072 89.5362 144.072Z" fill="white"/>
<path d="M98.3215 145C97.2868 145 96.4655 144.664 95.8575 143.992C95.2495 143.309 94.9028 142.419 94.8175 141.32C94.8068 141.16 94.8015 140.947 94.8015 140.68C94.8015 140.413 94.8068 140.2 94.8175 140.04C94.8708 139.315 95.0415 138.675 95.3295 138.12C95.6175 137.565 96.0121 137.133 96.5135 136.824C97.0255 136.515 97.6281 136.36 98.3215 136.36C99.0681 136.36 99.7028 136.525 100.225 136.856C100.748 137.187 101.148 137.661 101.425 138.28C101.713 138.899 101.857 139.635 101.857 140.488V140.728C101.857 140.835 101.82 140.92 101.745 140.984C101.681 141.048 101.596 141.08 101.489 141.08H95.7935C95.7935 141.08 95.7935 141.101 95.7935 141.144C95.7935 141.187 95.7935 141.219 95.7935 141.24C95.8148 141.72 95.9268 142.179 96.1295 142.616C96.3321 143.043 96.6201 143.395 96.9935 143.672C97.3668 143.939 97.8095 144.072 98.3215 144.072C98.7801 144.072 99.1588 144.003 99.4575 143.864C99.7668 143.725 100.012 143.576 100.193 143.416C100.375 143.245 100.492 143.117 100.545 143.032C100.641 142.893 100.716 142.813 100.769 142.792C100.823 142.76 100.908 142.744 101.025 142.744H101.281C101.377 142.744 101.457 142.776 101.521 142.84C101.596 142.893 101.628 142.968 101.617 143.064C101.607 143.213 101.521 143.4 101.361 143.624C101.212 143.837 100.993 144.051 100.705 144.264C100.428 144.477 100.087 144.653 99.6815 144.792C99.2761 144.931 98.8228 145 98.3215 145ZM95.7935 140.184H100.881V140.12C100.881 139.587 100.78 139.107 100.577 138.68C100.375 138.253 100.081 137.917 99.6975 137.672C99.3135 137.416 98.8548 137.288 98.3215 137.288C97.7881 137.288 97.3295 137.416 96.9455 137.672C96.5721 137.917 96.2841 138.253 96.0815 138.68C95.8895 139.107 95.7935 139.587 95.7935 140.12V140.184Z" fill="white"/>
<path d="M104.32 144.84C104.213 144.84 104.128 144.808 104.064 144.744C104 144.68 103.968 144.595 103.968 144.488V136.872C103.968 136.765 104 136.68 104.064 136.616C104.128 136.552 104.213 136.52 104.32 136.52H104.592C104.699 136.52 104.784 136.552 104.848 136.616C104.912 136.68 104.944 136.765 104.944 136.872V137.624C105.232 137.251 105.579 136.947 105.984 136.712C106.4 136.477 106.949 136.36 107.632 136.36C108.357 136.36 108.96 136.52 109.44 136.84C109.931 137.149 110.293 137.576 110.528 138.12C110.773 138.653 110.896 139.261 110.896 139.944V144.488C110.896 144.595 110.864 144.68 110.8 144.744C110.736 144.808 110.651 144.84 110.544 144.84H110.272C110.165 144.84 110.08 144.808 110.016 144.744C109.952 144.68 109.92 144.595 109.92 144.488V140.024C109.92 139.171 109.712 138.504 109.296 138.024C108.88 137.533 108.272 137.288 107.472 137.288C106.715 137.288 106.101 137.533 105.632 138.024C105.173 138.504 104.944 139.171 104.944 140.024V144.488C104.944 144.595 104.912 144.68 104.848 144.744C104.784 144.808 104.699 144.84 104.592 144.84H104.32Z" fill="white"/>
<path d="M116.493 145C115.459 145 114.637 144.664 114.029 143.992C113.421 143.309 113.075 142.419 112.989 141.32C112.979 141.16 112.973 140.947 112.973 140.68C112.973 140.413 112.979 140.2 112.989 140.04C113.043 139.315 113.213 138.675 113.501 138.12C113.789 137.565 114.184 137.133 114.685 136.824C115.197 136.515 115.8 136.36 116.493 136.36C117.24 136.36 117.875 136.525 118.397 136.856C118.92 137.187 119.32 137.661 119.597 138.28C119.885 138.899 120.029 139.635 120.029 140.488V140.728C120.029 140.835 119.992 140.92 119.917 140.984C119.853 141.048 119.768 141.08 119.661 141.08H113.965C113.965 141.08 113.965 141.101 113.965 141.144C113.965 141.187 113.965 141.219 113.965 141.24C113.987 141.72 114.099 142.179 114.301 142.616C114.504 143.043 114.792 143.395 115.165 143.672C115.539 143.939 115.981 144.072 116.493 144.072C116.952 144.072 117.331 144.003 117.629 143.864C117.939 143.725 118.184 143.576 118.365 143.416C118.547 143.245 118.664 143.117 118.717 143.032C118.813 142.893 118.888 142.813 118.941 142.792C118.995 142.76 119.08 142.744 119.197 142.744H119.453C119.549 142.744 119.629 142.776 119.693 142.84C119.768 142.893 119.8 142.968 119.789 143.064C119.779 143.213 119.693 143.4 119.533 143.624C119.384 143.837 119.165 144.051 118.877 144.264C118.6 144.477 118.259 144.653 117.853 144.792C117.448 144.931 116.995 145 116.493 145ZM113.965 140.184H119.053V140.12C119.053 139.587 118.952 139.107 118.749 138.68C118.547 138.253 118.253 137.917 117.869 137.672C117.485 137.416 117.027 137.288 116.493 137.288C115.96 137.288 115.501 137.416 115.117 137.672C114.744 137.917 114.456 138.253 114.253 138.68C114.061 139.107 113.965 139.587 113.965 140.12V140.184Z" fill="white"/>
<path d="M123.198 144.84C123.091 144.84 123.006 144.808 122.942 144.744C122.878 144.68 122.846 144.595 122.846 144.488V137.448H121.422C121.315 137.448 121.23 137.416 121.166 137.352C121.102 137.288 121.07 137.203 121.07 137.096V136.872C121.07 136.765 121.102 136.68 121.166 136.616C121.23 136.552 121.315 136.52 121.422 136.52H122.846V135.608C122.846 135.128 122.91 134.691 123.038 134.296C123.176 133.901 123.416 133.587 123.758 133.352C124.11 133.117 124.611 133 125.262 133H126.094C126.2 133 126.286 133.032 126.35 133.096C126.414 133.16 126.446 133.245 126.446 133.352V133.576C126.446 133.683 126.414 133.768 126.35 133.832C126.286 133.896 126.2 133.928 126.094 133.928H125.262C124.696 133.928 124.312 134.083 124.11 134.392C123.918 134.691 123.822 135.123 123.822 135.688V136.52H125.934C126.04 136.52 126.126 136.552 126.19 136.616C126.254 136.68 126.286 136.765 126.286 136.872V137.096C126.286 137.203 126.254 137.288 126.19 137.352C126.126 137.416 126.04 137.448 125.934 137.448H123.822V144.488C123.822 144.595 123.79 144.68 123.726 144.744C123.662 144.808 123.576 144.84 123.47 144.84H123.198Z" fill="white"/>
<path d="M128.101 144.84C127.994 144.84 127.909 144.808 127.845 144.744C127.781 144.68 127.749 144.595 127.749 144.488V136.872C127.749 136.765 127.781 136.68 127.845 136.616C127.909 136.552 127.994 136.52 128.101 136.52H128.373C128.48 136.52 128.565 136.552 128.629 136.616C128.693 136.68 128.725 136.765 128.725 136.872V144.488C128.725 144.595 128.693 144.68 128.629 144.744C128.565 144.808 128.48 144.84 128.373 144.84H128.101ZM128.021 135.32C127.85 135.32 127.765 135.235 127.765 135.064C127.765 134.979 127.792 134.909 127.845 134.856L128.949 133.528C129.034 133.421 129.114 133.347 129.189 133.304C129.264 133.261 129.381 133.24 129.541 133.24H130.197C130.4 133.24 130.501 133.341 130.501 133.544C130.501 133.619 130.474 133.683 130.421 133.736L128.677 135.16C128.592 135.235 128.512 135.283 128.437 135.304C128.373 135.315 128.288 135.32 128.181 135.32H128.021Z" fill="white"/>
<path d="M134.464 145C133.717 145 133.082 144.856 132.56 144.568C132.037 144.269 131.637 143.843 131.36 143.288C131.093 142.733 130.949 142.077 130.928 141.32C130.917 141.16 130.912 140.947 130.912 140.68C130.912 140.413 130.917 140.2 130.928 140.04C130.949 139.272 131.093 138.616 131.36 138.072C131.637 137.517 132.037 137.096 132.56 136.808C133.082 136.509 133.717 136.36 134.464 136.36C135.029 136.36 135.514 136.44 135.92 136.6C136.336 136.749 136.677 136.952 136.944 137.208C137.21 137.453 137.413 137.725 137.552 138.024C137.69 138.323 137.765 138.616 137.776 138.904C137.786 139.011 137.754 139.096 137.68 139.16C137.605 139.224 137.52 139.256 137.424 139.256H137.2C137.093 139.256 137.013 139.235 136.96 139.192C136.917 139.139 136.869 139.048 136.816 138.92C136.592 138.312 136.282 137.891 135.888 137.656C135.504 137.411 135.029 137.288 134.464 137.288C133.738 137.288 133.136 137.512 132.656 137.96C132.186 138.397 131.936 139.117 131.904 140.12C131.882 140.493 131.882 140.867 131.904 141.24C131.936 142.243 132.186 142.968 132.656 143.416C133.136 143.853 133.738 144.072 134.464 144.072C135.029 144.072 135.504 143.955 135.888 143.72C136.282 143.475 136.592 143.048 136.816 142.44C136.869 142.312 136.917 142.227 136.96 142.184C137.013 142.131 137.093 142.104 137.2 142.104H137.424C137.52 142.104 137.605 142.136 137.68 142.2C137.754 142.264 137.786 142.349 137.776 142.456C137.765 142.691 137.717 142.925 137.632 143.16C137.546 143.395 137.413 143.624 137.232 143.848C137.061 144.072 136.848 144.269 136.592 144.44C136.336 144.611 136.026 144.744 135.664 144.84C135.312 144.947 134.912 145 134.464 145Z" fill="white"/>
<path d="M140.242 144.84C140.135 144.84 140.05 144.808 139.986 144.744C139.922 144.68 139.89 144.595 139.89 144.488V136.872C139.89 136.765 139.922 136.68 139.986 136.616C140.05 136.552 140.135 136.52 140.242 136.52H140.514C140.62 136.52 140.706 136.552 140.77 136.616C140.834 136.68 140.866 136.765 140.866 136.872V144.488C140.866 144.595 140.834 144.68 140.77 144.744C140.706 144.808 140.62 144.84 140.514 144.84H140.242ZM140.066 134.808C139.959 134.808 139.874 134.776 139.81 134.712C139.746 134.648 139.714 134.563 139.714 134.456V133.848C139.714 133.741 139.746 133.656 139.81 133.592C139.874 133.517 139.959 133.48 140.066 133.48H140.674C140.78 133.48 140.866 133.517 140.93 133.592C141.004 133.656 141.042 133.741 141.042 133.848V134.456C141.042 134.563 141.004 134.648 140.93 134.712C140.866 134.776 140.78 134.808 140.674 134.808H140.066Z" fill="white"/>
<path d="M146.62 145C145.852 145 145.207 144.84 144.684 144.52C144.172 144.2 143.778 143.763 143.5 143.208C143.234 142.653 143.09 142.035 143.068 141.352C143.058 141.192 143.052 140.968 143.052 140.68C143.052 140.392 143.058 140.168 143.068 140.008C143.09 139.315 143.234 138.696 143.5 138.152C143.778 137.597 144.172 137.16 144.684 136.84C145.207 136.52 145.852 136.36 146.62 136.36C147.388 136.36 148.028 136.52 148.54 136.84C149.063 137.16 149.458 137.597 149.724 138.152C150.002 138.696 150.151 139.315 150.172 140.008C150.183 140.168 150.188 140.392 150.188 140.68C150.188 140.968 150.183 141.192 150.172 141.352C150.151 142.035 150.002 142.653 149.724 143.208C149.458 143.763 149.063 144.2 148.54 144.52C148.028 144.84 147.388 145 146.62 145ZM146.62 144.072C147.367 144.072 147.975 143.832 148.444 143.352C148.914 142.872 149.164 142.179 149.196 141.272C149.207 141.112 149.212 140.915 149.212 140.68C149.212 140.445 149.207 140.248 149.196 140.088C149.164 139.171 148.914 138.477 148.444 138.008C147.975 137.528 147.367 137.288 146.62 137.288C145.874 137.288 145.266 137.528 144.796 138.008C144.327 138.477 144.076 139.171 144.044 140.088C144.034 140.248 144.028 140.445 144.028 140.68C144.028 140.915 144.034 141.112 144.044 141.272C144.076 142.179 144.327 142.872 144.796 143.352C145.266 143.832 145.874 144.072 146.62 144.072Z" fill="white"/>
<path d="M155.014 145C154.459 145 153.979 144.925 153.574 144.776C153.179 144.627 152.854 144.451 152.598 144.248C152.342 144.035 152.15 143.827 152.022 143.624C151.905 143.421 151.841 143.267 151.83 143.16C151.819 143.043 151.857 142.957 151.942 142.904C152.027 142.84 152.107 142.808 152.182 142.808H152.422C152.486 142.808 152.539 142.819 152.582 142.84C152.635 142.861 152.699 142.92 152.774 143.016C152.913 143.197 153.073 143.373 153.254 143.544C153.435 143.704 153.665 143.832 153.942 143.928C154.23 144.024 154.587 144.072 155.014 144.072C155.654 144.072 156.182 143.949 156.598 143.704C157.014 143.459 157.222 143.096 157.222 142.616C157.222 142.317 157.137 142.077 156.966 141.896C156.806 141.715 156.529 141.555 156.134 141.416C155.739 141.277 155.206 141.133 154.534 140.984C153.862 140.824 153.345 140.632 152.982 140.408C152.63 140.184 152.39 139.928 152.262 139.64C152.134 139.341 152.07 139.021 152.07 138.68C152.07 138.307 152.177 137.944 152.39 137.592C152.603 137.229 152.918 136.936 153.334 136.712C153.761 136.477 154.294 136.36 154.934 136.36C155.457 136.36 155.899 136.429 156.262 136.568C156.635 136.707 156.939 136.877 157.174 137.08C157.409 137.272 157.579 137.464 157.686 137.656C157.803 137.848 157.867 138.003 157.878 138.12C157.889 138.227 157.857 138.312 157.782 138.376C157.707 138.44 157.622 138.472 157.526 138.472H157.286C157.201 138.472 157.131 138.456 157.078 138.424C157.025 138.381 156.977 138.328 156.934 138.264C156.827 138.093 156.699 137.933 156.55 137.784C156.401 137.635 156.198 137.517 155.942 137.432C155.697 137.336 155.361 137.288 154.934 137.288C154.294 137.288 153.819 137.421 153.51 137.688C153.201 137.944 153.046 138.275 153.046 138.68C153.046 138.915 153.11 139.123 153.238 139.304C153.366 139.475 153.606 139.635 153.958 139.784C154.31 139.923 154.822 140.072 155.494 140.232C156.177 140.381 156.715 140.568 157.11 140.792C157.505 141.005 157.782 141.261 157.942 141.56C158.113 141.859 158.198 142.211 158.198 142.616C158.198 143.043 158.075 143.437 157.83 143.8C157.595 144.163 157.238 144.456 156.758 144.68C156.289 144.893 155.707 145 155.014 145Z" fill="white"/>
<path d="M93.896 51.3405C93.5299 51.7073 93.3245 52.2045 93.325 52.7228C93.3254 53.241 93.5318 53.7379 93.8986 54.104C94.2654 54.4701 94.7627 54.6755 95.2809 54.6751C95.7992 54.6746 96.296 54.4682 96.6621 54.1014L93.896 51.3405ZM102.721 48.0352C102.907 47.8549 103.056 47.6393 103.158 47.4009C103.26 47.1625 103.314 46.9061 103.316 46.6467C103.318 46.3874 103.269 46.1302 103.17 45.8901C103.072 45.6501 102.927 45.4321 102.743 45.2487C102.56 45.0654 102.342 44.9204 102.102 44.8223C101.862 44.7242 101.604 44.6749 101.345 44.6773C101.086 44.6797 100.829 44.7337 100.591 44.8362C100.353 44.9387 100.137 45.0876 99.957 45.2742L102.721 48.0352ZM112.116 31.8968L116.129 35.9157L118.893 33.1548L114.882 29.1358L112.116 31.8968ZM105.437 47.9935L100.072 42.6227L97.3107 45.3836L102.671 50.7492L105.437 47.9935ZM114.866 41.7684L112.368 42.7061L113.743 46.363L116.239 45.4253L114.866 41.7684ZM105.359 35.6605L106.265 33.1861L102.596 31.8421L101.692 34.3139L105.359 35.6605ZM100.806 39.854C101.66 39.6196 102.572 39.3982 103.325 38.8564L101.043 35.6865C100.991 35.723 100.908 35.7751 99.7669 36.0903L100.806 39.854ZM101.692 34.3165C101.285 35.4261 101.223 35.5094 101.184 35.5563L104.158 38.0906C104.757 37.3848 105.054 36.494 105.359 35.6605L101.692 34.3165ZM103.325 38.8564C103.632 38.6341 103.91 38.3789 104.158 38.0906L101.184 35.5563C101.142 35.6053 101.095 35.6491 101.043 35.6865L103.325 38.8564ZM112.368 42.7113C111.54 43.0212 110.654 43.3234 109.954 43.9276L112.511 46.8813C112.558 46.8422 112.642 46.7823 113.743 46.3656L112.368 42.7113ZM111.983 48.293C112.295 47.1574 112.35 47.0688 112.386 47.0194L109.211 44.7429C108.672 45.4956 108.451 46.4021 108.216 47.2564L111.983 48.293ZM109.954 43.9276C109.675 44.1693 109.426 44.4429 109.211 44.7429L112.386 47.0194C112.423 46.9684 112.464 46.922 112.511 46.8813L109.954 43.9276ZM100.074 42.6279C99.2147 41.7684 98.6938 41.2396 98.3656 40.8307C98.0348 40.414 98.1676 40.4296 98.1676 40.6718L94.2607 40.6979C94.2685 41.7892 94.8128 42.6409 95.3103 43.2635C95.8052 43.8886 96.5215 44.597 97.3107 45.3889L100.074 42.6279ZM99.7669 36.0903C98.6912 36.3872 97.7196 36.6503 96.9773 36.9498C96.2376 37.2441 95.3442 37.7129 94.7972 38.661L98.1833 40.6119C98.0608 40.8229 97.941 40.7734 98.4333 40.5755C98.9204 40.3801 99.634 40.1796 100.804 39.8566L99.7669 36.0903ZM98.1676 40.6718C98.1676 40.651 98.1728 40.631 98.1833 40.6119L94.7972 38.661C94.4422 39.279 94.257 39.9852 94.2607 40.6979L98.1676 40.6718ZM102.674 50.757C103.468 51.5515 104.182 52.2703 104.809 52.773C105.435 53.2705 106.294 53.8201 107.393 53.8227L107.401 49.9157C107.646 49.9157 107.662 50.046 107.245 49.7152C106.831 49.387 106.302 48.8582 105.437 47.9935L102.674 50.757ZM108.216 47.2564C107.893 48.4337 107.69 49.1578 107.495 49.6501C107.294 50.1449 107.242 50.0199 107.456 49.8975L109.391 53.294C110.347 52.747 110.824 51.8484 111.121 51.1061C111.42 50.3585 111.686 49.3792 111.983 48.293L108.216 47.2564ZM107.393 53.8227C108.097 53.8227 108.784 53.6404 109.391 53.294L107.456 49.8975C107.439 49.9077 107.42 49.9157 107.401 49.9157L107.393 53.8227ZM116.129 35.9157C117.536 37.3223 118.432 38.2313 118.968 38.9528C119.221 39.294 119.32 39.4997 119.356 39.6091L119.372 39.6769V39.6847L123.191 40.5103C123.524 38.958 122.875 37.6635 122.107 36.6268C121.359 35.6162 120.211 34.4754 118.893 33.1574L116.129 35.9157ZM116.239 45.4253C117.984 44.7715 119.5 44.2089 120.599 43.5995C121.727 42.9743 122.855 42.0627 123.191 40.5103L119.372 39.6847L119.369 39.6925L119.325 39.7446C119.139 39.9203 118.929 40.0678 118.7 40.1822C117.919 40.6197 116.728 41.0677 114.866 41.7684L116.239 45.4253ZM114.879 29.1358C113.553 27.8075 112.405 26.6536 111.389 25.9009C110.35 25.1273 109.047 24.4735 107.487 24.8173L108.328 28.6279L108.349 28.6305L108.401 28.6462C108.64 28.743 108.863 28.8746 109.063 29.0369C109.787 29.576 110.699 30.4798 112.116 31.902L114.879 29.1358ZM106.263 33.1887C106.956 31.3055 107.401 30.1048 107.833 29.3103C107.956 29.0634 108.117 28.8375 108.31 28.641L108.323 28.6331H108.328L107.487 24.8173C105.927 25.1611 105.02 26.302 104.401 27.4428C103.799 28.5524 103.241 30.0839 102.596 31.8473L106.263 33.1887ZM96.6621 54.1066L102.721 48.0352L99.957 45.2769L93.896 51.3405L96.6621 54.1066Z" fill="white"/>
<path fill-rule="evenodd" clip-rule="evenodd" d="M106.997 16.907C102.769 16.9 98.6145 18.0118 94.9552 20.1293C94.0214 20.6697 92.8263 20.3508 92.2859 19.417C91.7456 18.4832 92.0645 17.2881 92.9983 16.7477C97.2538 14.2852 102.085 12.9922 107.002 13C122.465 13.0009 135 25.5362 135 41C135 56.4644 122.464 69 107 69C91.5356 69 79 56.4644 79 41C79 35.9047 80.3635 31.1168 82.7479 26.998C83.2884 26.0643 84.4835 25.7456 85.4172 26.2861C86.3509 26.8267 86.6697 28.0218 86.1291 28.9555C84.0804 32.4944 82.907 36.6092 82.907 41C82.907 54.3066 93.6934 65.093 107 65.093C120.307 65.093 131.093 54.3066 131.093 41C131.093 27.6934 120.307 16.907 107 16.907L106.997 16.907Z" fill="white"/>
</svg>
